<svg width="40" height="40" viewBox="0 0 40 40" fill="none" xmlns="http://www.w3.org/2000/svg">
  <path d="M8.19258 14.6292C14.3612 8.46058 24.3279 8.46058 30.4966 14.6292L31.1786 15.3112C31.4746 15.6072 31.4746 16.0852 31.1786 16.3812L28.9146 18.6452C28.7666 18.7932 28.5279 18.7932 28.3799 18.6452L27.4599 17.7252C23.2519 13.5172 15.4372 13.5172 11.2292 17.7252L10.2426 18.7119C10.0946 18.8599 9.85591 18.8599 9.70791 18.7119L7.44391 16.4479C7.14791 16.1519 7.14791 15.6739 7.44391 15.3779L8.19258 14.6292ZM35.3052 19.4379L37.3052 21.4379C37.6012 21.7339 37.6012 22.2119 37.3052 22.5079L28.0386 31.7746C27.7426 32.0706 27.2646 32.0706 26.9686 31.7746L20.4386 25.2446C20.3646 25.1706 20.2466 25.1706 20.1726 25.2446L13.6426 31.7746C13.3466 32.0706 12.8686 32.0706 12.5726 31.7746L3.30591 22.5079C3.00991 22.2119 3.00991 21.7339 3.30591 21.4379L5.30591 19.4379C5.60191 19.1419 6.07991 19.1419 6.37591 19.4379L12.9059 25.9679C12.9799 26.0419 13.0979 26.0419 13.1719 25.9679L19.7019 19.4379C19.9979 19.1419 20.4759 19.1419 20.7719 19.4379L27.3019 25.9679C27.3759 26.0419 27.4939 26.0419 27.5679 25.9679L34.0979 19.4379C34.3939 19.1419 34.8719 19.1419 35.1679 19.4379H35.3052Z" fill="#3B99FC"/>
</svg>
